PathFileType	4	(X/Y/Z)	./resultDataOpenSim/trcMotMarkerGrf/sub06/qtm-15-02.trc
DataRate	CameraRate	NumFrames	NumMarkers	Units	OrigDataRate	OrigDataStartFrame	OrigNumFrames
250.000000	250.000000	14	24	m	250.000000	206	547
Frame#	Time	L.Toe.Tip			R.Toe.Tip			L.Ankle.Lat			R.Ankle.Lat			L.Ankle.Med			R.Ankle.Med			L.Heel			R.Heel			L.Knee.Lat			R.Knee.Lat			L.Knee.Med			R.Knee.Med			L.Thigh.Upper			R.Thigh.Upper			L.ASIS			R.ASIS			V.Sacral			L.Acromium			R.Acromium			C7			L.Elbow			R.Elbow			L.Wrist.Lat			R.Wrist.Lat
		X1	Y1	Z1	X2	Y2	Z2	X3	Y3	Z3	X4	Y4	Z4	X5	Y5	Z5	X6	Y6	Z6	X7	Y7	Z7	X8	Y8	Z8	X9	Y9	Z9	X10	Y10	Z10	X11	Y11	Z11	X12	Y12	Z12	X13	Y13	Z13	X14	Y14	Z14	X15	Y15	Z15	X16	Y16	Z16	X17	Y17	Z17	X18	Y18	Z18	X19	Y19	Z19	X20	Y20	Z20	X21	Y21	Z21	X22	Y22	Z22	X23	Y23	Z23	X24	Y24	Z24

206	0.82	0.1454069	-0.065107872	-0.038291427	-0.42733793	0.096971396	0.11115082	0.025841117	-0.032090192	-0.079682731	-0.43177374	0.23732185	0.11807765	0.012984761	-0.018407377	0.0066291224	-0.38865945	0.21226746	0.041507675	-0.054559546	-0.058960443	-0.048681406	-0.45171388	0.27418762	0.046830742	0.099714561	0.34180966	-0.084642979	-0.07764557	0.323218	0.20290547	0.067679367	0.3390035	0.030941859	-0.073772375	0.31066685	0.071466147	-0.010149523	0.71341937	-0.15091684	-0.10700392	0.68373477	0.18068888	0.067681997	0.75272313	-0.096205806	-4.6247871e-06	0.73859951	0.14275333	-0.16193192	0.82817974	-0.0018303604	-0.013036052	1.2193738	-0.19180649	-0.048085304	1.2280728	0.17294232	-0.10887926	1.264536	-0.02050886	-0.13079662	0.93413914	-0.23883959	-0.088411152	0.90709663	0.26886197	-0.089705004	0.69956152	-0.28632163	0.13404171	0.80117104	0.23994039
207	0.824	0.14544314	-0.065178652	-0.038193881	-0.40814368	0.098507284	0.11101859	0.026186404	-0.03222956	-0.07963999	-0.41493427	0.23830615	0.11833516	0.013003797	-0.018498596	0.0066509306	-0.37133125	0.21421049	0.041857312	-0.054490666	-0.058761669	-0.04867243	-0.43526419	0.27559559	0.047817335	0.10166821	0.33948422	-0.085245435	-0.060958007	0.32413017	0.20312696	0.070860713	0.33725211	0.030979425	-0.058355804	0.31161463	0.071473435	-0.0044914156	0.71423749	-0.15291975	-0.10009801	0.68517599	0.18066499	0.077229922	0.75350546	-0.097295583	0.0059999765	0.74079279	0.14238438	-0.15547745	0.82899331	-0.0025034857	-0.0039297686	1.2203209	-0.19115728	-0.039124454	1.2289902	0.17271757	-0.1007524	1.2657266	-0.020214371	-0.11927684	0.93430812	-0.23893318	-0.084645542	0.90876261	0.26728602	-0.076297084	0.6999727	-0.28591948	0.13646962	0.79807918	0.24104725
208	0.828	0.14546362	-0.065245785	-0.038102389	-0.38874796	0.099844982	0.11087994	0.026468772	-0.032325512	-0.079523373	-0.39775731	0.23917674	0.11880191	0.013089131	-0.0185164	0.006743964	-0.35383987	0.21603149	0.04230087	-0.054446303	-0.058592565	-0.048602669	-0.41882369	0.27680356	0.04891027	0.10374916	0.33714524	-0.085345433	-0.044207232	0.32534708	0.2032535	0.073027134	0.33562205	0.031203482	-0.042804152	0.31269119	0.071286201	0.0014746627	0.71498529	-0.15517938	-0.093519432	0.6867112	0.18030991	0.086723751	0.75437123	-0.098249456	0.011969217	0.74319663	0.14213643	-0.14854273	0.82970645	-0.0024147285	0.0050696236	1.2213898	-0.19045161	-0.030497369	1.2300119	0.17254501	-0.092851336	1.2669034	-0.019957251	-0.10786209	0.93456236	-0.2389579	-0.080851122	0.91074016	0.26570476	-0.062588989	0.7005787	-0.28541618	0.13847953	0.79515123	0.24218082
209	0.832	0.14546348	-0.065270751	-0.038036762	-0.3691943	0.10097502	0.11076172	0.026634822	-0.032374199	-0.079356929	-0.38027095	0.23992456	0.11947177	0.013182874	-0.018519832	0.0069335745	-0.33625995	0.21768022	0.0428584	-0.05444795	-0.058461372	-0.048462568	-0.40242056	0.27772948	0.050041738	0.10616045	0.3350119	-0.084872601	-0.027416563	0.32688836	0.20328398	0.074324234	0.33424901	0.031581059	-0.027293078	0.31395143	0.070847678	0.0075747604	0.71564909	-0.1575686	-0.087310101	0.68832157	0.17963159	0.096082372	0.75530041	-0.099067235	0.017903725	0.74576103	0.14198559	-0.14132248	0.83049913	-0.0019075851	0.013923753	1.2225742	-0.18971419	-0.022235892	1.2311478	0.17243772	-0.085188355	1.2680713	-0.019759497	-0.096586117	0.93489295	-0.23893929	-0.077002319	0.91297462	0.26413528	-0.048619788	0.70134108	-0.28483161	0.14008207	0.79239064	0.24337083
210	0.836	0.14544208	-0.065255674	-0.037972857	-0.34948996	0.10190507	0.11070652	0.026700554	-0.032386251	-0.079170707	-0.36264828	0.24047638	0.12026571	0.013198237	-0.018552574	0.0071762535	-0.31867707	0.21910115	0.043575247	-0.054492573	-0.058361977	-0.048286708	-0.38605307	0.27831748	0.051151356	0.10887748	0.3332856	-0.083958018	-0.010614367	0.32879304	0.20322435	0.074886817	0.33323524	0.03204587	-0.011932132	0.31545173	0.070195449	0.013531754	0.71622904	-0.15989372	-0.081194366	0.68998137	0.17895497	0.10522213	0.7562727	-0.099749166	0.02376591	0.74840668	0.14192726	-0.13418937	0.8314691	-0.0015031027	0.022586602	1.2238886	-0.1889907	-0.014338682	1.2323901	0.17240585	-0.077769439	1.2692453	-0.019641833	-0.085451659	0.93530567	-0.23889363	-0.073119989	0.91540648	0.2626107	-0.034491651	0.70222449	-0.28420223	0.14143891	0.78977271	0.24460091
211	0.84	0.14540404	-0.065230268	-0.03787441	-0.32958887	0.10266398	0.11077911	0.026726992	-0.03237433	-0.078982205	-0.34504891	0.2407735	0.12110706	0.013118894	-0.018608296	0.0074078555	-0.30112863	0.22026298	0.044455619	-0.054559546	-0.05828433	-0.048116059	-0.36971789	0.27854584	0.052204137	0.11167402	0.33210379	-0.082862043	0.0061513965	0.33111145	0.20308283	0.074899398	0.33264347	0.032533974	0.0033141443	0.3172705	0.069446258	0.019102939	0.71673491	-0.16198148	-0.074797172	0.69166825	0.17858089	0.1140526	0.75726727	-0.10029547	0.029518972	0.751048	0.1419885	-0.12750196	0.83262419	-0.0018881849	0.031049528	1.2253443	-0.18830725	-0.0067827694	1.2337234	0.17245551	-0.070557984	1.2704309	-0.019595785	-0.074419842	0.93580301	-0.23886181	-0.069229443	0.91797754	0.26116234	-0.020307731	0.70321284	-0.2835548	0.14269386	0.78728897	0.24586581
212	0.844	0.14536096	-0.065211158	-0.037744695	-0.309458	0.10328017	0.11103241	0.026770855	-0.032338582	-0.078796942	-0.32754337	0.24080673	0.12196068	0.013013629	-0.018637556	0.0075895959	-0.28361792	0.22118531	0.045402632	-0.054621806	-0.058210579	-0.047971003	-0.3534474	0.27841292	0.053217347	0.11428622	0.33148701	-0.081814456	0.022815318	0.33388669	0.20286288	0.074629344	0.33249208	0.03302693	0.018590974	0.31951214	0.068679248	0.02418317	0.71717917	-0.16374466	-0.068055072	0.69340063	0.17848936	0.12247442	0.7582624	-0.10070504	0.035186895	0.75364633	0.14217945	-0.12130176	0.83391094	-0.0033707934	0.039354987	1.226937	-0.18765132	0.00046343236	1.2351376	0.17258227	-0.06346991	1.2716138	-0.019578576	-0.063448286	0.93637827	-0.2389101	-0.065345322	0.92063745	0.25980465	-0.006113747	0.70431731	-0.28289969	0.1438672	0.7849572	0.2471899
213	0.848	0.14532509	-0.065197257	-0.037619398	-0.28912245	0.10376975	0.11147653	0.026851141	-0.032265655	-0.078621389	-0.3101454	0.24058973	0.12281435	0.01295441	-0.018585007	0.0077011086	-0.26616179	0.22192818	0.046258665	-0.054661327	-0.058108358	-0.047858285	-0.33728479	0.27792291	0.05424648	0.1165452	0.33134093	-0.080926544	0.039316296	0.33713525	0.20256484	0.074337308	0.33272319	0.0335143	0.034175379	0.32229224	0.067845708	0.028792605	0.71757299	-0.16517487	-0.061192534	0.69522599	0.1784799	0.1303911	0.75923596	-0.10097428	0.040841461	0.7562125	0.14245884	-0.11534138	0.83525567	-0.0054781342	0.047560644	1.2286528	-0.18699621	0.0074430415	1.2366274	0.17276933	-0.05641776	1.2727849	-0.019550233	-0.052562973	0.93701906	-0.23907431	-0.06146818	0.92334532	0.25853118	0.0080852261	0.70555769	-0.28225428	0.14492588	0.7827966	0.24859214
214	0.852	0.14530339	-0.065184172	-0.037527333	-0.26860808	0.10415156	0.11210818	0.026952871	-0.032139223	-0.078469798	-0.29284868	0.24012621	0.12365473	0.012956712	-0.018430347	0.0077338409	-0.24878255	0.22253623	0.046931929	-0.054685075	-0.057945157	-0.047789463	-0.32123547	0.27707292	0.055325298	0.1184	0.33152488	-0.080223046	0.055619776	0.340839	0.20219246	0.074211922	0.33322004	0.033949291	0.050529476	0.32570528	0.066817623	0.033007768	0.71792585	-0.16629935	-0.054389733	0.69717977	0.17843519	0.13774937	0.76016822	-0.10109873	0.046543226	0.75876407	0.14276972	-0.10937545	0.83662394	-0.0074862076	0.055707046	1.2304713	-0.18632969	0.014215329	1.2381844	0.172995	-0.049344396	1.2739636	-0.019500868	-0.041851105	0.93770996	-0.23933781	-0.057586654	0.92606784	0.25732404	0.022285126	0.70693938	-0.28165452	0.1458548	0.78080838	0.25008175
215	0.856	0.14529636	-0.065170379	-0.037472954	-0.24791704	0.1044396	0.11293872	0.027049694	-0.031957048	-0.078359389	-0.27562683	0.23941163	0.12447245	0.013020019	-0.018193651	0.0077128753	-0.23147015	0.22299183	0.047478661	-0.054714009	-0.057712457	-0.047772949	-0.30526087	0.27584912	0.05643362	0.11987624	0.33190495	-0.079711245	0.071718739	0.34495353	0.20175465	0.074300924	0.33386082	0.034240157	0.067799189	0.32977201	0.065597223	0.036911382	0.71824642	-0.16714932	-0.047669662	0.69928017	0.17837309	0.14459971	0.76104725	-0.1010816	0.052322595	0.7613032	0.14308401	-0.10329279	0.83803361	-0.0090816442	0.063813565	1.232365	-0.18565773	0.020848689	1.2397928	0.17324318	-0.042213559	1.2751878	-0.019431556	-0.031351728	0.93843282	-0.23968498	-0.053689884	0.92877598	0.25616673	0.036484999	0.70845421	-0.28112911	0.14666406	0.77897671	0.25167484
216	0.86	0.14529913	-0.065157592	-0.037446533	-0.22708083	0.10461903	0.11397603	0.027118095	-0.031741552	-0.07830432	-0.25843169	0.23846156	0.12528357	0.013153426	-0.017904831	0.0076831136	-0.21416236	0.22322	0.048073856	-0.054746601	-0.05743012	-0.047787232	-0.28931026	0.27423602	0.057527584	0.12103193	0.33235683	-0.079402055	0.087612527	0.34942424	0.20126022	0.074395866	0.3345439	0.03430329	0.085168164	0.33438484	0.064433938	0.040576118	0.71854323	-0.1677497	-0.040999519	0.70153707	0.17836264	0.15109712	0.76187263	-0.10094991	0.058191168	0.76382517	0.14340018	-0.097020542	0.83948932	-0.010316575	0.071885001	1.2343044	-0.18499308	0.027405821	1.2414323	0.17350842	-0.034994227	1.2764892	-0.019330729	-0.021009622	0.93917244	-0.24011841	-0.049787213	0.93144216	0.25504918	0.050724575	0.71010288	-0.28066591	0.14738253	0.7772829	0.25339263
217	0.864	0.14530613	-0.065148836	-0.037437802	-0.20615494	0.10466292	0.11521615	0.027141555	-0.031521441	-0.07831956	-0.24121172	0.23732157	0.12613283	0.013323356	-0.017582301	0.0076585524	-0.19677836	0.22312994	0.048870132	-0.05475262	-0.057123176	-0.047787765	-0.27334674	0.27222747	0.058576509	0.12192282	0.33277161	-0.079292666	0.10328886	0.35419955	0.2007118	0.074149633	0.33521946	0.034202257	0.101534	0.3393366	0.063570927	0.044066335	0.71882498	-0.16812018	-0.034358042	0.70394654	0.17845566	0.15733078	0.76265222	-0.10076782	0.064151295	0.76632876	0.14372077	-0.090471821	0.84094837	-0.011268797	0.079916002	1.2362692	-0.18434761	0.03392598	1.2430838	0.17378993	-0.027665602	1.2778755	-0.019184744	-0.01075806	0.93992107	-0.24061786	-0.045908895	0.93403834	0.25396558	0.065092881	0.71190961	-0.280212	0.14805865	0.7757188	0.25524394
218	0.868	0.14531867	-0.065146194	-0.037435272	-0.18516179	0.10456216	0.11665259	0.027113984	-0.031301142	-0.078425328	-0.22392998	0.23603122	0.12706005	0.013441222	-0.017236332	0.0076092695	-0.17929304	0.22267595	0.049833282	-0.054715852	-0.05679014	-0.047756849	-0.25734657	0.26983384	0.059567241	0.12257662	0.33309417	-0.079364853	0.1187335	0.35923266	0.20010491	0.073476098	0.33589616	0.034115112	0.11686881	0.34445589	0.062881111	0.047443355	0.71910045	-0.16827851	-0.027732193	0.70648739	0.17866819	0.16308397	0.76340321	-0.1006303	0.070204745	0.76881515	0.1440394	-0.08362523	0.84238661	-0.011989661	0.087898433	1.2382517	-0.18373084	0.040417171	1.2447321	0.17408171	-0.020225014	1.2793337	-0.018996804	-0.00058608941	0.94067392	-0.24113928	-0.04207575	0.93653526	0.25291412	0.079675071	0.71390758	-0.27970847	0.14874937	0.77428569	0.2572032
219	0.872	0.14534683	-0.065150286	-0.037421421	-0.16409283	0.10432198	0.11826805	0.027050284	-0.031060094	-0.078626741	-0.20656567	0.23458556	0.12806657	0.01346116	-0.016861978	0.0074985644	-0.16175912	0.22189498	0.050789242	-0.054659178	-0.056390657	-0.047720858	-0.24128857	0.2670839	0.060502117	0.1230044	0.33334489	-0.079598717	0.13395267	0.36447461	0.19943412	0.072768807	0.3365681	0.034075122	0.13206665	0.34969221	0.061977525	0.050768545	0.71937848	-0.1682425	-0.021103657	0.70912772	0.1789911	0.16786542	0.76416572	-0.10063161	0.076356552	0.7712793	0.1443384	-0.076600997	0.84384001	-0.012594979	0.095830997	1.2402468	-0.18314925	0.046874476	1.2463608	0.17437585	-0.012681279	1.2808482	-0.018783028	0.0094907332	0.94143204	-0.24164176	-0.038270944	0.93890674	0.25190346	0.09449528	0.71611261	-0.27912419	0.14947977	0.77298621	0.25921402
